<svg width="73" height="72" viewBox="0 0 73 72" fill="none" xmlns="http://www.w3.org/2000/svg">
<mask id="path-1-inside-1" fill="white">
<path d="M35.9309 20.1286C38.2118 17.8477 40.4927 15.5668 42.7816 13.2779C43.4196 12.6399 44.0736 12.0178 44.7834 11.4596C44.4643 11.7068 44.1374 11.962 43.8184 12.2093C44.895 11.3878 46.0594 10.7019 47.3035 10.1756C46.9207 10.3351 46.5379 10.4946 46.1631 10.6541C47.4869 10.0958 48.8746 9.721 50.2942 9.52162C49.8715 9.57745 49.4488 9.63328 49.0182 9.6891C50.4696 9.4977 51.9291 9.4977 53.3806 9.6891C52.9579 9.63328 52.5352 9.57745 52.1046 9.52162C53.5241 9.721 54.9118 10.0958 56.2357 10.6541C55.8529 10.4946 55.4701 10.3351 55.0952 10.1756C56.3394 10.7099 57.5117 11.3878 58.5804 12.2093C58.2614 11.962 57.9344 11.7068 57.6154 11.4596C58.692 12.297 59.665 13.262 60.5024 14.3386C60.2552 14.0196 60 13.6926 59.7527 13.3736C60.5981 14.4742 61.2999 15.6705 61.8422 16.9465C61.6827 16.5637 61.5232 16.1809 61.3637 15.8061C61.922 17.1379 62.2968 18.5256 62.4882 19.9531C62.4324 19.5305 62.3766 19.1078 62.3207 18.6771C62.5042 20.0967 62.5042 21.5322 62.3207 22.9518C62.3766 22.5291 62.4324 22.1064 62.4882 21.6758C62.2888 23.1033 61.914 24.499 61.3557 25.8229C61.5153 25.4401 61.6748 25.0572 61.8343 24.6824C61.284 25.9584 60.5822 27.1547 59.7368 28.2553C59.984 27.9363 60.2392 27.6093 60.4865 27.2903C59.4896 28.5583 58.2933 29.6589 57.1528 30.7994C55.7412 32.211 54.3216 33.6306 52.91 35.0422C52.5671 35.3851 52.2162 35.736 51.8733 36.0789C51.004 36.9482 50.4696 38.2322 50.4696 39.4604C50.4696 40.6327 50.988 42.0364 51.8733 42.8419C52.7824 43.6793 53.9787 44.3013 55.2547 44.2455C56.5228 44.1897 57.7191 43.759 58.6362 42.8419C60.8772 40.6008 63.1183 38.3598 65.3593 36.1188C67.2574 34.2207 68.9641 32.1073 70.0407 29.635C70.5272 28.5185 71.0057 27.394 71.3167 26.2057C71.6278 25.0174 71.7952 23.7892 71.9228 22.577C72.1461 20.5194 71.9388 18.4299 71.548 16.4042C71.1572 14.3865 70.3677 12.4007 69.3788 10.6062C68.7806 9.52162 68.031 8.54068 67.2653 7.56771C66.731 6.88982 66.1488 6.25181 65.5188 5.66164C64.1471 4.38562 62.5999 3.22922 60.9251 2.37588C59.2742 1.53051 57.4958 0.836668 55.6695 0.469811C52.0248 -0.263904 48.1728 -0.184153 44.6398 1.03605C41.4976 2.12067 38.6903 3.82736 36.3297 6.18003C34.0089 8.5008 31.6881 10.8216 29.3674 13.1423C29.2956 13.2141 29.2238 13.2859 29.152 13.3577C28.2827 14.227 27.7484 15.511 27.7484 16.7391C27.7484 17.9115 28.2668 19.3151 29.152 20.1206C30.0612 20.958 31.2575 21.5801 32.5335 21.5242C33.8175 21.4684 35.0138 21.0378 35.9309 20.1286Z"/>
<path d="M36.0983 51.8546C33.8174 54.1355 31.5365 56.4163 29.2476 58.7052C28.6096 59.3432 27.9556 59.9653 27.2458 60.5236C27.5648 60.2763 27.8918 60.0211 28.2108 59.7739C27.1342 60.5953 25.9698 61.2812 24.7257 61.8076C25.1085 61.6481 25.4913 61.4886 25.8661 61.3291C24.5422 61.8873 23.1625 62.2621 21.735 62.4615C22.1577 62.4057 22.5804 62.3499 23.011 62.294C21.5595 62.4854 20.1001 62.4854 18.6486 62.294C19.0713 62.3499 19.494 62.4057 19.9246 62.4615C18.505 62.2621 17.1174 61.8873 15.7935 61.3291C16.1763 61.4886 16.5591 61.6481 16.9339 61.8076C15.6898 61.2732 14.5254 60.5953 13.4488 59.7739C13.7678 60.0211 14.0948 60.2763 14.4138 60.5236C13.3132 59.6702 12.3243 58.6813 11.4709 57.5807C11.7182 57.8997 11.9734 58.2267 12.2206 58.5457C11.3992 57.4691 10.7213 56.3047 10.1869 55.0606C10.3464 55.4434 10.506 55.8262 10.6655 56.201C10.1072 54.8771 9.73236 53.4974 9.53298 52.0699C9.58881 52.4926 9.64463 52.9152 9.70046 53.3459C9.50906 51.8944 9.50906 50.435 9.70046 48.9835C9.64463 49.4062 9.58881 49.8289 9.53298 50.2595C9.73236 48.8399 10.1072 47.4523 10.6655 46.1284C10.506 46.5112 10.3464 46.894 10.1869 47.2688C10.7213 46.0247 11.3992 44.8603 12.2206 43.7837C11.9734 44.1027 11.7182 44.4297 11.4709 44.7487C12.4439 43.4886 13.6322 42.396 14.7487 41.2795C16.1843 39.844 17.6198 38.4084 19.0553 36.9729C19.4142 36.614 19.7731 36.2551 20.132 35.8962C21.0013 35.027 21.5356 33.743 21.5356 32.5148C21.5356 31.3424 21.0172 29.9388 20.132 29.1333C19.2228 28.2959 18.0265 27.6739 16.7505 27.7297C15.4825 27.7855 14.2862 28.2162 13.369 29.1333C11.0722 31.4302 8.77534 33.727 6.47849 36.0239C5.96011 36.5422 5.4497 37.0606 4.98714 37.6269C4.25342 38.5281 3.52768 39.4532 2.92954 40.4501C2.33141 41.447 1.8848 42.5077 1.43021 43.5843C0.688523 45.3707 0.353566 47.1811 0.114311 49.0951C-0.124944 51.0331 0.0425343 52.9073 0.32964 54.8373C0.895877 58.6494 2.77802 62.1744 5.27424 65.0614C6.55027 66.5368 8.12138 67.8049 9.76426 68.8496C11.3673 69.8705 13.1776 70.652 15.0039 71.1784C15.7456 71.3937 16.4953 71.5532 17.2529 71.6649C18.4014 71.8323 19.5418 71.9918 20.7062 71.9998C22.5804 72.0078 24.5024 71.7526 26.3127 71.2661C29.8059 70.325 33.0358 68.419 35.5878 65.8749C37.9405 63.5382 40.2772 61.1855 42.6219 58.8408C42.6937 58.769 42.7735 58.6893 42.8452 58.6175C43.7145 57.7482 44.2489 56.4642 44.2489 55.236C44.2489 54.0637 43.7305 52.66 42.8452 51.8546C41.9361 51.0172 40.7398 50.3951 39.4638 50.4509C38.2197 50.5068 37.0154 50.9374 36.0983 51.8546Z"/>
<path d="M24.6857 54.0867C25.6667 53.1057 26.6396 52.1327 27.6206 51.1518C29.9653 48.8071 32.31 46.4624 34.6547 44.1177C37.4859 41.2865 40.3091 38.4633 43.1403 35.6321C45.5886 33.1838 48.045 30.7274 50.4934 28.279C51.6817 27.0907 52.8859 25.9184 54.0583 24.7141C54.0742 24.6982 54.0902 24.6822 54.1061 24.6663C54.9754 23.797 55.5097 22.513 55.5097 21.2848C55.5097 20.1125 54.9914 18.7088 54.1061 17.9033C53.1969 17.0659 52.0007 16.4439 50.7246 16.4997C49.4566 16.5555 48.2603 16.9862 47.3432 17.9033C46.3622 18.8843 45.3893 19.8572 44.4083 20.8382C42.0636 23.1829 39.7189 25.5276 37.3742 27.8723C34.543 30.7035 31.7198 33.5267 28.8886 36.3579C26.4403 38.8062 23.9839 41.2626 21.5355 43.711C20.3472 44.8993 19.143 46.0716 17.9706 47.2759C17.9547 47.2918 17.9387 47.3078 17.9228 47.3237C17.0535 48.193 16.5192 49.477 16.5192 50.7052C16.5192 51.8775 17.0375 53.2812 17.9228 54.0867C18.832 54.9241 20.0282 55.5461 21.3043 55.4903C22.5723 55.4265 23.7766 55.0038 24.6857 54.0867Z"/>
</mask>
<path d="M35.9309 20.1286C38.2118 17.8477 40.4927 15.5668 42.7816 13.2779C43.4196 12.6399 44.0736 12.0178 44.7834 11.4596C44.4643 11.7068 44.1374 11.962 43.8184 12.2093C44.895 11.3878 46.0594 10.7019 47.3035 10.1756C46.9207 10.3351 46.5379 10.4946 46.1631 10.6541C47.4869 10.0958 48.8746 9.721 50.2942 9.52162C49.8715 9.57745 49.4488 9.63328 49.0182 9.6891C50.4696 9.4977 51.9291 9.4977 53.3806 9.6891C52.9579 9.63328 52.5352 9.57745 52.1046 9.52162C53.5241 9.721 54.9118 10.0958 56.2357 10.6541C55.8529 10.4946 55.4701 10.3351 55.0952 10.1756C56.3394 10.7099 57.5117 11.3878 58.5804 12.2093C58.2614 11.962 57.9344 11.7068 57.6154 11.4596C58.692 12.297 59.665 13.262 60.5024 14.3386C60.2552 14.0196 60 13.6926 59.7527 13.3736C60.5981 14.4742 61.2999 15.6705 61.8422 16.9465C61.6827 16.5637 61.5232 16.1809 61.3637 15.8061C61.922 17.1379 62.2968 18.5256 62.4882 19.9531C62.4324 19.5305 62.3766 19.1078 62.3207 18.6771C62.5042 20.0967 62.5042 21.5322 62.3207 22.9518C62.3766 22.5291 62.4324 22.1064 62.4882 21.6758C62.2888 23.1033 61.914 24.499 61.3557 25.8229C61.5153 25.4401 61.6748 25.0572 61.8343 24.6824C61.284 25.9584 60.5822 27.1547 59.7368 28.2553C59.984 27.9363 60.2392 27.6093 60.4865 27.2903C59.4896 28.5583 58.2933 29.6589 57.1528 30.7994C55.7412 32.211 54.3216 33.6306 52.91 35.0422C52.5671 35.3851 52.2162 35.736 51.8733 36.0789C51.004 36.9482 50.4696 38.2322 50.4696 39.4604C50.4696 40.6327 50.988 42.0364 51.8733 42.8419C52.7824 43.6793 53.9787 44.3013 55.2547 44.2455C56.5228 44.1897 57.7191 43.759 58.6362 42.8419C60.8772 40.6008 63.1183 38.3598 65.3593 36.1188C67.2574 34.2207 68.9641 32.1073 70.0407 29.635C70.5272 28.5185 71.0057 27.394 71.3167 26.2057C71.6278 25.0174 71.7952 23.7892 71.9228 22.577C72.1461 20.5194 71.9388 18.4299 71.548 16.4042C71.1572 14.3865 70.3677 12.4007 69.3788 10.6062C68.7806 9.52162 68.031 8.54068 67.2653 7.56771C66.731 6.88982 66.1488 6.25181 65.5188 5.66164C64.1471 4.38562 62.5999 3.22922 60.9251 2.37588C59.2742 1.53051 57.4958 0.836668 55.6695 0.469811C52.0248 -0.263904 48.1728 -0.184153 44.6398 1.03605C41.4976 2.12067 38.6903 3.82736 36.3297 6.18003C34.0089 8.5008 31.6881 10.8216 29.3674 13.1423C29.2956 13.2141 29.2238 13.2859 29.152 13.3577C28.2827 14.227 27.7484 15.511 27.7484 16.7391C27.7484 17.9115 28.2668 19.3151 29.152 20.1206C30.0612 20.958 31.2575 21.5801 32.5335 21.5242C33.8175 21.4684 35.0138 21.0378 35.9309 20.1286Z" stroke="white" stroke-width="2" mask="url(#path-1-inside-1)"/>
<path d="M36.0983 51.8546C33.8174 54.1355 31.5365 56.4163 29.2476 58.7052C28.6096 59.3432 27.9556 59.9653 27.2458 60.5236C27.5648 60.2763 27.8918 60.0211 28.2108 59.7739C27.1342 60.5953 25.9698 61.2812 24.7257 61.8076C25.1085 61.6481 25.4913 61.4886 25.8661 61.3291C24.5422 61.8873 23.1625 62.2621 21.735 62.4615C22.1577 62.4057 22.5804 62.3499 23.011 62.294C21.5595 62.4854 20.1001 62.4854 18.6486 62.294C19.0713 62.3499 19.494 62.4057 19.9246 62.4615C18.505 62.2621 17.1174 61.8873 15.7935 61.3291C16.1763 61.4886 16.5591 61.6481 16.9339 61.8076C15.6898 61.2732 14.5254 60.5953 13.4488 59.7739C13.7678 60.0211 14.0948 60.2763 14.4138 60.5236C13.3132 59.6702 12.3243 58.6813 11.4709 57.5807C11.7182 57.8997 11.9734 58.2267 12.2206 58.5457C11.3992 57.4691 10.7213 56.3047 10.1869 55.0606C10.3464 55.4434 10.506 55.8262 10.6655 56.201C10.1072 54.8771 9.73236 53.4974 9.53298 52.0699C9.58881 52.4926 9.64463 52.9152 9.70046 53.3459C9.50906 51.8944 9.50906 50.435 9.70046 48.9835C9.64463 49.4062 9.58881 49.8289 9.53298 50.2595C9.73236 48.8399 10.1072 47.4523 10.6655 46.1284C10.506 46.5112 10.3464 46.894 10.1869 47.2688C10.7213 46.0247 11.3992 44.8603 12.2206 43.7837C11.9734 44.1027 11.7182 44.4297 11.4709 44.7487C12.4439 43.4886 13.6322 42.396 14.7487 41.2795C16.1843 39.844 17.6198 38.4084 19.0553 36.9729C19.4142 36.614 19.7731 36.2551 20.132 35.8962C21.0013 35.027 21.5356 33.743 21.5356 32.5148C21.5356 31.3424 21.0172 29.9388 20.132 29.1333C19.2228 28.2959 18.0265 27.6739 16.7505 27.7297C15.4825 27.7855 14.2862 28.2162 13.369 29.1333C11.0722 31.4302 8.77534 33.727 6.47849 36.0239C5.96011 36.5422 5.4497 37.0606 4.98714 37.6269C4.25342 38.5281 3.52768 39.4532 2.92954 40.4501C2.33141 41.447 1.8848 42.5077 1.43021 43.5843C0.688523 45.3707 0.353566 47.1811 0.114311 49.0951C-0.124944 51.0331 0.0425343 52.9073 0.32964 54.8373C0.895877 58.6494 2.77802 62.1744 5.27424 65.0614C6.55027 66.5368 8.12138 67.8049 9.76426 68.8496C11.3673 69.8705 13.1776 70.652 15.0039 71.1784C15.7456 71.3937 16.4953 71.5532 17.2529 71.6649C18.4014 71.8323 19.5418 71.9918 20.7062 71.9998C22.5804 72.0078 24.5024 71.7526 26.3127 71.2661C29.8059 70.325 33.0358 68.419 35.5878 65.8749C37.9405 63.5382 40.2772 61.1855 42.6219 58.8408C42.6937 58.769 42.7735 58.6893 42.8452 58.6175C43.7145 57.7482 44.2489 56.4642 44.2489 55.236C44.2489 54.0637 43.7305 52.66 42.8452 51.8546C41.9361 51.0172 40.7398 50.3951 39.4638 50.4509C38.2197 50.5068 37.0154 50.9374 36.0983 51.8546Z" stroke="white" stroke-width="2" mask="url(#path-1-inside-1)"/>
<path d="M24.6857 54.0867C25.6667 53.1057 26.6396 52.1327 27.6206 51.1518C29.9653 48.8071 32.31 46.4624 34.6547 44.1177C37.4859 41.2865 40.3091 38.4633 43.1403 35.6321C45.5886 33.1838 48.045 30.7274 50.4934 28.279C51.6817 27.0907 52.8859 25.9184 54.0583 24.7141C54.0742 24.6982 54.0902 24.6822 54.1061 24.6663C54.9754 23.797 55.5097 22.513 55.5097 21.2848C55.5097 20.1125 54.9914 18.7088 54.1061 17.9033C53.1969 17.0659 52.0007 16.4439 50.7246 16.4997C49.4566 16.5555 48.2603 16.9862 47.3432 17.9033C46.3622 18.8843 45.3893 19.8572 44.4083 20.8382C42.0636 23.1829 39.7189 25.5276 37.3742 27.8723C34.543 30.7035 31.7198 33.5267 28.8886 36.3579C26.4403 38.8062 23.9839 41.2626 21.5355 43.711C20.3472 44.8993 19.143 46.0716 17.9706 47.2759C17.9547 47.2918 17.9387 47.3078 17.9228 47.3237C17.0535 48.193 16.5192 49.477 16.5192 50.7052C16.5192 51.8775 17.0375 53.2812 17.9228 54.0867C18.832 54.9241 20.0282 55.5461 21.3043 55.4903C22.5723 55.4265 23.7766 55.0038 24.6857 54.0867Z" stroke="white" stroke-width="2" mask="url(#path-1-inside-1)"/>
</svg>
