<svg width="191" height="25" viewBox="0 0 191 25" fill="none" xmlns="http://www.w3.org/2000/svg">
<path d="M38.5218 22.7956L38.635 22.8119C39.3034 22.8445 39.7992 22.8609 40.1226 22.8609C42.0629 22.8609 43.4751 22.5071 44.359 21.7995C45.2429 21.081 45.6849 19.9325 45.6849 18.354C45.6849 16.9279 45.2699 15.8665 44.4398 15.1698C43.6098 14.4622 42.3648 14.1084 40.7047 14.1084C40.2196 14.1084 39.8154 14.1139 39.492 14.1248C39.1686 14.1356 38.8452 14.152 38.5218 14.1737V22.7956ZM38.538 12.2306C38.6243 12.2415 38.732 12.2523 38.8614 12.2632C38.9908 12.2632 39.1794 12.2632 39.4273 12.2632C41.1521 12.2632 42.4187 11.9149 43.2271 11.2182C44.0464 10.5106 44.456 9.41106 44.456 7.91966C44.456 6.61332 44.0787 5.64446 43.3242 5.01306C42.5696 4.38167 41.4108 4.06597 39.8477 4.06597C39.589 4.06597 39.1794 4.08774 38.6189 4.13129H38.5218L38.538 12.2306ZM31.7307 2.26976H41.6749C44.1111 2.26976 45.9436 2.71065 47.1725 3.59242C48.4013 4.46331 49.0158 5.76965 49.0158 7.51143C49.0158 8.82865 48.6169 9.93359 47.8192 10.8263C47.0215 11.708 45.8466 12.3558 44.2943 12.7694C46.1915 12.8021 47.6683 13.292 48.7247 14.2391C49.7811 15.1862 50.3093 16.4925 50.3093 18.1581C50.3093 20.27 49.5925 21.892 48.1588 23.0242C46.7251 24.1454 44.6608 24.7061 41.9659 24.7061H31.7307V23.0732L33.6872 22.8935L34.2208 22.371V4.53952L33.6872 4.06597L31.7307 3.90268V2.26976Z" fill="#3040C4"/>
<path d="M52.5245 24.7061V23.2038L54.287 23.0732L54.7559 22.5669V11.0222H52.3628V9.68321L57.2298 8.11561H58.8306L58.6851 11.5284C59.2564 10.9188 59.8654 10.3309 60.5122 9.76486C61.159 9.18789 61.8381 8.64359 62.5495 8.13194C62.7328 8.09928 62.8783 8.07751 62.9861 8.06662C63.1047 8.05574 63.2071 8.05029 63.2933 8.05029C63.649 8.05029 64.0048 8.09928 64.3605 8.19726C64.727 8.28435 65.0989 8.42587 65.4762 8.62182L65.0558 13.243H63.3257C63.0777 12.8293 62.7759 12.5245 62.4202 12.3285C62.0752 12.1326 61.6602 12.0346 61.1751 12.0346C60.8949 12.0346 60.5553 12.1163 60.1565 12.2796C59.7684 12.432 59.3264 12.6606 58.8306 12.9654V22.5669L59.3157 23.0732L61.6764 23.2038V24.7061H52.5245Z" fill="#3040C4"/>
<path d="M76.8594 21.4239V15.97C74.6819 16.4598 73.1944 16.9932 72.3967 17.5702C71.599 18.1472 71.2001 18.931 71.2001 19.9216C71.2001 20.6945 71.4211 21.3096 71.8631 21.7668C72.305 22.2132 72.9033 22.4363 73.6579 22.4363C74.0783 22.4363 74.5526 22.3547 75.0808 22.1914C75.6198 22.0172 76.2126 21.7614 76.8594 21.4239ZM76.8594 22.7956C75.7383 23.5685 74.7197 24.1291 73.8034 24.4775C72.8871 24.8258 72.0086 25 71.1678 25C69.8958 25 68.8556 24.5972 68.0471 23.7916C67.2386 22.9752 66.8344 21.9301 66.8344 20.6564C66.8344 19.0888 67.4273 17.8805 68.613 17.0314C69.7988 16.1822 72.5638 15.2624 76.9079 14.2717V13.2756C76.9079 12.0673 76.6546 11.1855 76.148 10.6303C75.6413 10.0751 74.8436 9.79752 73.7549 9.79752C73.5177 9.79752 73.2698 9.81385 73.0111 9.84651C72.7524 9.87916 72.4721 9.92815 72.1703 9.99347V13.1287H69.1143C68.5861 13.1287 68.198 13.0307 67.9501 12.8347C67.7129 12.6388 67.5944 12.3285 67.5944 11.904C67.5944 10.8589 68.2897 9.94992 69.6802 9.17701C71.0708 8.40409 72.7794 8.01764 74.8059 8.01764C77.0804 8.01764 78.6812 8.45852 79.6082 9.3403C80.5353 10.2221 80.9988 11.757 80.9988 13.9451V22.5996L81.4354 23.0732L83.1978 23.2364V24.7061H77.296L76.8594 22.7956Z" fill="#3040C4"/>
<path d="M84.5399 24.7061V23.2038L86.2377 23.0732L86.7066 22.5669V11.0222H84.4429V9.68321L89.2128 8.11561H90.8136V10.0914C92.0748 9.38384 93.1635 8.86675 94.0798 8.54017C94.9961 8.21359 95.7938 8.05029 96.4729 8.05029C97.982 8.05029 99.1085 8.50751 99.8523 9.42195C100.596 10.3364 100.968 11.7298 100.968 13.6022V22.5669L101.405 23.0732L103.151 23.2038V24.7061H95.05V23.2038L96.4729 23.0732L96.9256 22.5669V14.5656C96.9256 13.3246 96.6885 12.4156 96.2142 11.8387C95.7399 11.2508 94.9853 10.9569 93.9504 10.9569C93.5516 10.9569 93.0881 11.0059 92.5599 11.1039C92.0425 11.2018 91.4604 11.3433 90.8136 11.5284V22.5669L91.2663 23.0732L92.7216 23.2038V24.7061H84.5399Z" fill="#3040C4"/>
<path d="M116.458 21.5219V10.3527C115.962 10.1894 115.515 10.0697 115.116 9.99347C114.717 9.90638 114.345 9.86283 114 9.86283C112.556 9.86283 111.397 10.4398 110.524 11.5937C109.662 12.7477 109.23 14.2989 109.23 16.2475C109.23 18.0982 109.624 19.546 110.411 20.5911C111.198 21.6362 112.287 22.1587 113.677 22.1587C114.044 22.1587 114.453 22.1097 114.906 22.0118C115.369 21.9029 115.887 21.7396 116.458 21.5219ZM116.458 2.9066H114.033V1.5676L118.964 0H120.501V22.5669L120.953 23.1058L122.651 23.2364V24.7061H116.458V22.8282C115.445 23.5794 114.518 24.1291 113.677 24.4775C112.836 24.8258 112.017 25 111.219 25C109.344 25 107.802 24.2543 106.595 22.7629C105.398 21.2606 104.8 19.3229 104.8 16.9497C104.8 14.2826 105.587 12.1217 107.161 10.467C108.745 8.81232 110.804 7.98498 113.338 7.98498C113.812 7.98498 114.308 8.01219 114.825 8.06662C115.343 8.12105 115.887 8.2027 116.458 8.31156V2.9066Z" fill="#3040C4"/>
<path d="M124.22 24.7061V23.0732L126.241 22.8935L126.807 22.371V4.53952L126.338 4.06597L124.22 3.90268V2.26976H133.759V3.90268L131.738 4.06597L131.205 4.53952V22.7629H137.575L137.996 22.224L138.497 18.1581H140.955V24.7061H124.22Z" fill="#3040C4"/>
<path d="M147.034 8.11561H148.635V22.5669L149.12 23.0732L150.98 23.2038V24.7061H142.297V23.2038L144.092 23.0732L144.561 22.5669V11.0222H142.378V9.68321L147.034 8.11561ZM146.679 0.489876C147.401 0.489876 147.994 0.723928 148.457 1.19203C148.921 1.64925 149.153 2.23166 149.153 2.93926C149.153 3.67951 148.921 4.28914 148.457 4.76813C148.005 5.23623 147.423 5.47028 146.711 5.47028C146.021 5.47028 145.444 5.23623 144.981 4.76813C144.517 4.30002 144.286 3.71217 144.286 3.00457C144.286 2.28609 144.512 1.68735 144.965 1.20836C145.428 0.729371 146 0.489876 146.679 0.489876Z" fill="#3040C4"/>
<path d="M152.451 24.7061V23.2038L154.149 23.0732L154.618 22.5669V11.0222H152.354V9.68321L157.124 8.11561H158.725V10.0914C159.986 9.38384 161.075 8.86675 161.991 8.54017C162.907 8.21359 163.705 8.05029 164.384 8.05029C165.893 8.05029 167.02 8.50751 167.764 9.42195C168.507 10.3364 168.879 11.7298 168.879 13.6022V22.5669L169.316 23.0732L171.062 23.2038V24.7061H162.961V23.2038L164.384 23.0732L164.837 22.5669V14.5656C164.837 13.3246 164.6 12.4156 164.126 11.8387C163.651 11.2508 162.897 10.9569 161.862 10.9569C161.463 10.9569 160.999 11.0059 160.471 11.1039C159.954 11.2018 159.372 11.3433 158.725 11.5284V22.5669L159.178 23.0732L160.633 23.2038V24.7061H152.451Z" fill="#3040C4"/>
<path d="M172.307 24.7061V23.2364L174.037 23.0732L174.49 22.5669V2.87394H172.081V1.5676L177.174 0H178.565V16.0516H179.292L184.03 10.467L183.804 10.0914L182.348 9.92815V8.45852H189.107V9.92815L186.94 10.1894L183.173 14.435L188.444 23.0732L190.385 23.2364V24.7061H184.03V23.3997L180.198 17.1457H178.565V22.6323L179.001 23.1058L180.651 23.2364V24.7061H172.307Z" fill="#3040C4"/>
<path d="M12.2811 6.99837C13.0242 6.20534 13.7674 5.41231 14.5132 4.61651C14.7211 4.39468 14.9342 4.1784 15.1654 3.9843C15.0615 4.07026 14.9549 4.15899 14.851 4.24495C15.2018 3.95935 15.5812 3.72089 15.9866 3.53788C15.8618 3.59334 15.7371 3.64879 15.615 3.70425C16.0463 3.51015 16.4985 3.37983 16.961 3.31051C16.8233 3.32992 16.6856 3.34933 16.5452 3.36874C17.0182 3.30219 17.4937 3.30219 17.9666 3.36874C17.8289 3.34933 17.6912 3.32992 17.5509 3.31051C18.0134 3.37983 18.4655 3.51015 18.8969 3.70425C18.7722 3.64879 18.6474 3.59334 18.5253 3.53788C18.9307 3.72366 19.3127 3.95935 19.6609 4.24495C19.5569 4.15899 19.4504 4.07026 19.3464 3.9843C19.6972 4.27545 20.0143 4.61096 20.2871 4.9853C20.2065 4.87438 20.1234 4.7607 20.0428 4.64978C20.3183 5.03243 20.547 5.44836 20.7237 5.89201C20.6717 5.75892 20.6197 5.62582 20.5677 5.4955C20.7496 5.95856 20.8718 6.44103 20.9341 6.93737C20.9159 6.79041 20.8978 6.64345 20.8796 6.49371C20.9393 6.98728 20.9393 7.48639 20.8796 7.97995C20.8978 7.83299 20.9159 7.68603 20.9341 7.5363C20.8692 8.03263 20.747 8.51788 20.5651 8.97817C20.6171 8.84507 20.6691 8.71198 20.7211 8.58166C20.5418 9.02531 20.3131 9.44123 20.0376 9.82388C20.1182 9.71297 20.2014 9.59928 20.2819 9.48837C19.9571 9.92925 19.5673 10.3119 19.1957 10.7084C18.7358 11.1992 18.2733 11.6928 17.8133 12.1836C17.7016 12.3028 17.5872 12.4248 17.4755 12.544C17.1923 12.8463 17.0182 13.2927 17.0182 13.7197C17.0182 14.1273 17.1871 14.6153 17.4755 14.8954C17.7717 15.1865 18.1615 15.4028 18.5773 15.3834C18.9904 15.364 19.3802 15.2143 19.679 14.8954C20.4092 14.1162 21.1394 13.3371 21.8696 12.5579C22.488 11.898 23.0441 11.1632 23.3949 10.3036C23.5534 9.91539 23.7094 9.52442 23.8107 9.11127C23.912 8.69811 23.9666 8.2711 24.0082 7.84963C24.0809 7.13424 24.0134 6.40776 23.8861 5.70346C23.7587 5.00193 23.5015 4.3115 23.1793 3.68761C22.9844 3.31051 22.7401 2.96945 22.4906 2.63116C22.3165 2.39547 22.1269 2.17365 21.9216 1.96846C21.4746 1.5248 20.9705 1.12274 20.4248 0.826051C19.8869 0.532132 19.3075 0.290895 18.7124 0.163345C17.5249 -0.091755 16.2698 -0.0640268 15.1187 0.360216C14.0948 0.737321 13.1802 1.33071 12.411 2.14869C11.6548 2.95558 10.8987 3.76248 10.1425 4.56937C10.1191 4.59433 10.0957 4.61928 10.0723 4.64424C9.78909 4.94648 9.61499 5.3929 9.61499 5.81992C9.61499 6.22752 9.78389 6.71554 10.0723 6.9956C10.3686 7.28674 10.7583 7.50302 11.1741 7.48361C11.5925 7.46421 11.9822 7.31447 12.2811 6.99837Z" fill="#3040C4"/>
<path d="M12.5508 17.4763C11.7577 18.2193 10.9647 18.9624 10.1689 19.708C9.94708 19.9158 9.71971 20.1185 9.47293 20.3004C9.58384 20.2198 9.69753 20.1367 9.80844 20.0561C9.43411 20.3237 9.02928 20.5472 8.59671 20.7186C8.72981 20.6667 8.86291 20.6147 8.99323 20.5628C8.53294 20.7446 8.05324 20.8667 7.5569 20.9317C7.70386 20.9135 7.85082 20.8953 8.00055 20.8771C7.4959 20.9395 6.98847 20.9395 6.48381 20.8771C6.63077 20.8953 6.77773 20.9135 6.92747 20.9317C6.4339 20.8667 5.95143 20.7446 5.49114 20.5628C5.62423 20.6147 5.75733 20.6667 5.88765 20.7186C5.45509 20.5446 5.05026 20.3237 4.67592 20.0561C4.78684 20.1367 4.90052 20.2198 5.01144 20.3004C4.62879 20.0224 4.28495 19.7002 3.98826 19.3417C4.07422 19.4456 4.16295 19.5521 4.24891 19.656C3.96331 19.3053 3.72761 18.926 3.54183 18.5207C3.59729 18.6454 3.65275 18.7701 3.7082 18.8922C3.51411 18.4609 3.38378 18.0115 3.31446 17.5464C3.33387 17.6841 3.35328 17.8218 3.37269 17.9621C3.30614 17.4892 3.30614 17.0138 3.37269 16.541C3.35328 16.6787 3.33387 16.8164 3.31446 16.9566C3.38378 16.4942 3.51411 16.0421 3.7082 15.6108C3.65275 15.7356 3.59729 15.8603 3.54183 15.9824C3.72761 15.5771 3.96331 15.1978 4.24891 14.847C4.16295 14.9509 4.07422 15.0575 3.98826 15.1614C4.32655 14.7509 4.7397 14.3949 5.1279 14.0312C5.62701 13.5636 6.12612 13.0959 6.62523 12.6283C6.75 12.5113 6.87478 12.3944 6.99956 12.2775C7.3018 11.9943 7.48758 11.576 7.48758 11.1759C7.48758 10.794 7.30734 10.3368 6.99956 10.0744C6.68346 9.80156 6.26753 9.59891 5.82388 9.6171C5.383 9.63529 4.96707 9.77558 4.6482 10.0744C3.84962 10.8226 3.05104 11.5708 2.25247 12.3191C2.07223 12.488 1.89477 12.6568 1.73395 12.8413C1.47885 13.1349 1.22652 13.4363 1.01855 13.761C0.810592 14.0858 0.655313 14.4313 0.497262 14.7821C0.239388 15.364 0.122929 15.9538 0.039744 16.5773C-0.0434411 17.2087 0.0147885 17.8192 0.114611 18.4479C0.311482 19.6898 0.965871 20.8382 1.83377 21.7787C2.27742 22.2593 2.82367 22.6724 3.39487 23.0127C3.95221 23.3453 4.58165 23.5999 5.21663 23.7714C5.4745 23.8415 5.73515 23.8935 5.99857 23.9299C6.39786 23.9844 6.79437 24.0364 7.1992 24.039C7.85082 24.0416 8.51907 23.9584 9.14851 23.8C10.363 23.4934 11.486 22.8724 12.3733 22.0437C13.1913 21.2824 14.0037 20.516 14.819 19.7522C14.8439 19.7288 14.8716 19.7028 14.8966 19.6794C15.1988 19.3962 15.3846 18.9779 15.3846 18.5778C15.3846 18.1959 15.2044 17.7387 14.8966 17.4763C14.5805 17.2035 14.1646 17.0008 13.7209 17.019C13.2884 17.0372 12.8697 17.1775 12.5508 17.4763Z" fill="#3040C4"/>
<path d="M8.38741 18.7454C8.70189 18.4068 9.01382 18.0709 9.3283 17.7323C10.08 16.9229 10.8317 16.1136 11.5834 15.3042C12.491 14.3269 13.3961 13.3524 14.3038 12.3751C15.0887 11.5299 15.8762 10.682 16.6611 9.83686C17.042 9.42667 17.4281 9.02199 17.804 8.60629C17.8091 8.60079 17.8142 8.59528 17.8193 8.58978C18.098 8.28971 18.2693 7.84648 18.2693 7.42253C18.2693 7.01785 18.1031 6.53333 17.8193 6.25528C17.5278 5.96622 17.1443 5.75149 16.7352 5.77076C16.3287 5.79003 15.9452 5.93869 15.6512 6.25528C15.3367 6.59389 15.0248 6.92975 14.7103 7.26836C13.9586 8.07773 13.2069 8.88709 12.4552 9.69646C11.5476 10.6738 10.6425 11.6483 9.73482 12.6256C8.9499 13.4707 8.16241 14.3186 7.37749 15.1638C6.99653 15.574 6.61046 15.9787 6.23462 16.3944C6.2295 16.3999 6.22439 16.4054 6.21928 16.4109C5.94059 16.711 5.76929 17.1542 5.76929 17.5781C5.76929 17.9828 5.93548 18.4673 6.21928 18.7454C6.51075 19.0344 6.89426 19.2492 7.30334 19.2299C7.70987 19.2079 8.09594 19.062 8.38741 18.7454Z" fill="#3040C4"/>
</svg>
