<svg width="27" height="31" viewBox="0 0 27 31" fill="none" xmlns="http://www.w3.org/2000/svg">
<path d="M21.7976 0C18.9662 0 16.6454 2.32731 16.6454 5.16667C16.6454 5.71701 16.7319 6.25776 16.8931 6.75641L8.38463 11.5008C7.49811 10.7789 6.37495 10.3333 5.15215 10.3333C2.3208 10.3333 0 12.6606 0 15.5C0 18.3393 2.3208 20.6667 5.15215 20.6667C6.37495 20.6667 7.49811 20.2335 8.38463 19.5116L16.9055 24.256C16.7435 24.7559 16.6454 25.2815 16.6454 25.8333C16.6454 28.6727 18.9662 31 21.7976 31C24.6289 31 26.9497 28.6727 26.9497 25.8333C26.9497 22.994 24.6289 20.6667 21.7976 20.6667C20.3756 20.6667 19.0791 21.2626 18.144 22.2067L9.85845 17.5865C10.1415 16.9484 10.3043 16.2397 10.3043 15.5C10.3043 14.7562 10.1444 14.0543 9.85845 13.4135L18.1316 8.79327C19.0677 9.74473 20.3693 10.3333 21.7976 10.3333C24.6289 10.3333 26.9497 8.00602 26.9497 5.16667C26.9497 2.32731 24.6289 0 21.7976 0ZM21.7976 2.38462C23.3438 2.38462 24.5718 3.61607 24.5718 5.16667C24.5718 6.71727 23.3438 7.94872 21.7976 7.94872C20.2513 7.94872 19.0233 6.71727 19.0233 5.16667C19.0233 3.61607 20.2513 2.38462 21.7976 2.38462ZM5.15215 12.7179C6.69838 12.7179 7.92639 13.9494 7.92639 15.5C7.92639 17.0506 6.69838 18.2821 5.15215 18.2821C3.60592 18.2821 2.37792 17.0506 2.37792 15.5C2.37792 13.9494 3.60592 12.7179 5.15215 12.7179ZM21.7976 23.0513C23.3438 23.0513 24.5718 24.2827 24.5718 25.8333C24.5718 27.3839 23.3438 28.6154 21.7976 28.6154C20.2513 28.6154 19.0233 27.3839 19.0233 25.8333C19.0233 24.2827 20.2513 23.0513 21.7976 23.0513Z" fill="#3040C4"/>
<path fill-rule="evenodd" clip-rule="evenodd" d="M17.0155 6.80454L8.37391 11.6231L8.32045 11.5796C7.45059 10.8712 6.34973 10.435 5.15215 10.435C2.3772 10.435 0.101639 12.7165 0.101639 15.5C0.101639 18.2835 2.3772 20.565 5.15215 20.565C6.35043 20.565 7.45117 20.1407 8.32045 19.4328L8.37388 19.3893L17.028 24.2079L17.0022 24.2874C16.8429 24.7787 16.7471 25.2937 16.7471 25.8333C16.7471 28.6168 19.0226 30.8984 21.7976 30.8984C24.5725 30.8984 26.8481 28.6168 26.8481 25.8333C26.8481 23.0498 24.5725 20.7683 21.7976 20.7683C20.4045 20.7683 19.1335 21.3521 18.2162 22.2783L18.1619 22.3331L9.72792 17.6301L9.76554 17.5453C10.0431 16.9195 10.2027 16.2247 10.2027 15.5C10.2027 14.771 10.046 14.0832 9.76563 13.4549L9.72777 13.37L18.1497 8.66674L18.2041 8.72199C19.1219 9.65488 20.3977 10.2317 21.7976 10.2317C24.5725 10.2317 26.8481 7.95016 26.8481 5.16667C26.8481 2.38317 24.5725 0.101639 21.7976 0.101639C19.0226 0.101639 16.7471 2.38317 16.7471 5.16667C16.7471 5.70649 16.8319 6.23669 16.9898 6.72515L17.0155 6.80454ZM21.7976 2.28298C23.4002 2.28298 24.6734 3.5602 24.6734 5.16667C24.6734 6.77313 23.4002 8.05036 21.7976 8.05036C20.1949 8.05036 18.9217 6.77313 18.9217 5.16667C18.9217 3.5602 20.1949 2.28298 21.7976 2.28298ZM5.15215 12.6163C6.75478 12.6163 8.02803 13.8935 8.02803 15.5C8.02803 17.1065 6.75478 18.3837 5.15215 18.3837C3.54952 18.3837 2.27628 17.1065 2.27628 15.5C2.27628 13.8935 3.54952 12.6163 5.15215 12.6163ZM21.7976 22.9496C23.4002 22.9496 24.6734 24.2269 24.6734 25.8333C24.6734 27.4398 23.4002 28.717 21.7976 28.717C20.1949 28.717 18.9217 27.4398 18.9217 25.8333C18.9217 24.2269 20.1949 22.9496 21.7976 22.9496ZM16.6454 5.16667C16.6454 2.32731 18.9662 0 21.7976 0C24.6289 0 26.9497 2.32731 26.9497 5.16667C26.9497 8.00602 24.6289 10.3333 21.7976 10.3333C20.3693 10.3333 19.0677 9.74473 18.1316 8.79327L9.85845 13.4135C10.1444 14.0543 10.3043 14.7562 10.3043 15.5C10.3043 16.2397 10.1415 16.9484 9.85845 17.5865L18.144 22.2067C19.0791 21.2626 20.3756 20.6667 21.7976 20.6667C24.6289 20.6667 26.9497 22.994 26.9497 25.8333C26.9497 28.6727 24.6289 31 21.7976 31C18.9662 31 16.6454 28.6727 16.6454 25.8333C16.6454 25.2815 16.7435 24.7559 16.9055 24.256L8.38463 19.5116C7.49811 20.2335 6.37495 20.6667 5.15215 20.6667C2.3208 20.6667 0 18.3393 0 15.5C0 12.6606 2.3208 10.3333 5.15215 10.3333C6.37495 10.3333 7.49811 10.7789 8.38463 11.5008L16.8931 6.75641C16.7319 6.25776 16.6454 5.71701 16.6454 5.16667ZM24.5718 5.16667C24.5718 3.61607 23.3438 2.38462 21.7976 2.38462C20.2513 2.38462 19.0233 3.61607 19.0233 5.16667C19.0233 6.71727 20.2513 7.94872 21.7976 7.94872C23.3438 7.94872 24.5718 6.71727 24.5718 5.16667ZM7.92639 15.5C7.92639 13.9494 6.69838 12.7179 5.15215 12.7179C3.60592 12.7179 2.37792 13.9494 2.37792 15.5C2.37792 17.0506 3.60592 18.2821 5.15215 18.2821C6.69838 18.2821 7.92639 17.0506 7.92639 15.5ZM24.5718 25.8333C24.5718 24.2827 23.3438 23.0513 21.7976 23.0513C20.2513 23.0513 19.0233 24.2827 19.0233 25.8333C19.0233 27.3839 20.2513 28.6154 21.7976 28.6154C23.3438 28.6154 24.5718 27.3839 24.5718 25.8333Z" fill="#3040C4"/>
</svg>
