<svg width="30" height="32" viewBox="0 0 30 32" fill="none" xmlns="http://www.w3.org/2000/svg">
<path fill-rule="evenodd" clip-rule="evenodd" d="M10.6773 27.8872L10.5649 27.7385H2.49551C1.1275 27.7385 0 26.6468 0 25.2642V2.47425C0 1.12638 1.13077 0 2.49551 0H12.9806C13.3289 0 13.6618 0.142084 13.9495 0.393166L21.816 8.20147C22.0509 8.46729 22.1767 8.79574 22.2111 9.1756V11.8955L22.4639 11.9824C24.382 12.6414 26.081 13.8875 27.2997 15.5004C30.7332 20.0444 29.8103 26.5313 25.2319 29.9396C20.6508 33.3501 14.1112 32.4318 10.6773 27.8872ZM20.6627 9.98961L12.1852 1.57487V9.98961H20.6627ZM10.0642 11.0205V2.09975H2.12101V25.6387H9.41739L9.23876 25.1383C7.57886 20.4884 9.53271 15.2826 13.8565 12.7882L15.068 12.0894H11.1438C10.5444 12.0894 10.0642 11.6087 10.0642 11.0205ZM19.0268 29.8929C23.5934 29.8929 27.2842 26.2333 27.2842 21.6938C27.2842 17.1922 23.5551 13.4947 19.0268 13.4947C14.4601 13.4947 10.7693 17.1543 10.7693 21.6938C10.7693 26.2333 14.4601 29.8929 19.0268 29.8929ZM16.1657 20.9769L17.9471 22.7451V18.1613C17.9471 17.5599 18.4021 17.0924 18.9885 17.0924C19.5879 17.0924 20.0681 17.5731 20.0681 18.1613V22.8042L21.8397 20.9871C22.2372 20.6899 22.7626 20.6941 23.1564 20.9996C23.6078 21.3657 23.6862 22.0296 23.3401 22.4682L19.7578 26.0239C19.3299 26.4487 18.6853 26.4487 18.2573 26.0239L14.6656 22.4588C14.3073 22.0706 14.3086 21.4246 14.6696 21.0383C15.0651 20.6181 15.7446 20.5912 16.1657 20.9769Z" fill="#3040C4"/>
</svg>
