<svg width="37" height="32" viewBox="0 0 37 32" fill="none" xmlns="http://www.w3.org/2000/svg">
<path fill-rule="evenodd" clip-rule="evenodd" d="M28.2538 27.1363C28.2759 27.1208 28.3001 27.1038 28.3263 27.0858L28.384 27.0463C28.4644 26.9917 28.5589 26.9283 28.6627 26.8588C28.6679 26.8553 28.6732 26.8518 28.6785 26.8482L28.6794 26.8476V26.8476C28.674 26.8512 28.668 26.8552 28.6627 26.8588C28.5589 26.9283 28.4644 26.9917 28.384 27.0463C28.3349 27.0797 28.2912 27.1099 28.2538 27.1363ZM29.3144 31.9945C29.0679 31.9674 28.819 31.8377 28.6202 31.5519L26.3489 28.2849L24.2778 29.7461C23.6684 30.1758 22.8248 29.8253 22.6819 29.1015L22.6812 29.0977L20.2908 19.4517C20.0582 18.5247 21.0927 17.8172 21.8623 18.3423L30.09 23.9327C30.5586 24.2539 30.6817 24.8982 30.3632 25.3706C30.3099 25.4491 30.1831 25.57 29.9965 25.7205C29.8147 25.8672 29.5907 26.0306 29.3583 26.1935C29.1262 26.3561 28.8875 26.5168 28.6766 26.6582L28.591 26.7155C28.417 26.8321 28.2657 26.9333 28.1622 27.0063L28.0331 27.0973L30.3033 30.3625C30.5021 30.6484 30.5383 30.929 30.4791 31.1725C30.4189 31.4199 30.2572 31.6406 30.0415 31.7927C29.8257 31.9448 29.5649 32.0221 29.3144 31.9945ZM2.23604 6.08232H21.5292V2.11147C21.5292 0.948708 22.4725 0 23.6243 0H34.6727C35.8264 0 36.7682 0.94684 36.7682 2.11147V25.4222C36.7682 26.582 35.8221 27.5336 34.6727 27.5336H30.2176L30.2185 27.5276C30.2226 27.5057 30.2389 27.4698 30.2872 27.4159C30.3697 27.3238 30.4996 27.2264 30.6676 27.1005C30.7048 27.0725 30.7439 27.0432 30.7848 27.0122C31.194 26.702 31.7218 26.2658 31.9474 25.5553H34.806V1.97786H23.4909V6.16861L23.5993 6.20501C24.4901 6.50435 25.1118 7.38739 25.1118 8.33527V18.7018L23.15 17.3691V8.33527C23.15 8.18258 23.0306 8.06066 22.8762 8.06066H2.23604C2.08265 8.06066 1.96224 8.18354 1.96224 8.33527V20.8613C1.96224 21.0083 2.08604 21.1359 2.23604 21.1359H19.139L19.6289 23.1137H2.23604C1.00441 23.1137 0 22.1042 0 20.8613V8.33527C0 7.09418 1.00681 6.08232 2.23604 6.08232ZM7.83789 12.0125L5.96508 13.8981C5.58186 14.2845 5.5819 14.9121 5.96502 15.2979L7.83793 17.184C8.07194 17.4198 8.32703 17.4999 8.56271 17.4843C8.80258 17.4684 9.03526 17.3522 9.21338 17.1728C9.39147 16.9935 9.50722 16.7587 9.52308 16.5161C9.53867 16.2775 9.45869 16.02 9.22466 15.7843L8.04696 14.5983L9.22466 13.4122C9.45869 13.1764 9.53867 12.9189 9.52308 12.6803C9.50722 12.4376 9.39147 12.2029 9.21339 12.0235C9.03528 11.8442 8.8026 11.728 8.56273 11.7122C8.32704 11.6966 8.07191 11.7768 7.83789 12.0125ZM16.5558 11.7152C16.7908 11.7004 17.0448 11.7809 17.2774 12.0165L19.1495 13.9028C19.5291 14.2879 19.5286 14.9099 19.1493 15.2939L17.2773 17.1796C17.0448 17.4153 16.7907 17.4959 16.5558 17.4811C16.3167 17.466 16.0844 17.351 15.9063 17.1728C15.7283 16.9946 15.6122 16.7609 15.5958 16.5191C15.5796 16.2814 15.6587 16.0241 15.8913 15.7882L17.0724 14.5983L15.8912 13.4077C15.6585 13.1719 15.5796 12.9149 15.5958 12.6772C15.6122 12.4355 15.7283 12.2018 15.9063 12.0236C16.0844 11.8454 16.3167 11.7304 16.5558 11.7152ZM10.82 17.3167L12.4024 11.3693C12.4879 11.0471 12.6691 10.849 12.8808 10.7437C13.0962 10.6366 13.3548 10.62 13.5973 10.6853C13.8399 10.7506 14.056 10.8951 14.1898 11.0965C14.3214 11.2947 14.3802 11.5577 14.2946 11.8798L12.7127 17.8273C12.6272 18.1493 12.446 18.3473 12.2343 18.4526C12.0189 18.5597 11.7603 18.5763 11.5177 18.511C11.2752 18.4458 11.059 18.3013 10.9251 18.0999C10.7935 17.9018 10.7346 17.6388 10.82 17.3167ZM29.7834 21.8601L29.7186 21.8189H32.1994C32.5299 21.8189 32.7667 21.9438 32.9229 22.1231C33.0818 22.3056 33.165 22.554 33.165 22.8081C33.165 23.0621 33.0818 23.3105 32.9229 23.493C32.7667 23.6724 32.5299 23.7973 32.1994 23.7973H31.8644C31.6428 23.2803 31.2201 22.8679 30.7595 22.5182C30.4494 22.2827 30.1048 22.064 29.7834 21.8601ZM28.3554 10.767C27.8154 10.767 27.3747 10.3249 27.3747 9.77782C27.3747 9.23122 27.8153 8.78913 28.3554 8.78913H32.1994C32.5299 8.78913 32.7668 8.91396 32.9229 9.09327C33.0818 9.27575 33.165 9.52409 33.165 9.77806C33.165 10.032 33.0818 10.2804 32.9229 10.4628C32.7668 10.6422 32.5299 10.767 32.1994 10.767H28.3554ZM26.1369 6.87957C25.5964 6.87957 25.1558 6.43748 25.1558 5.8904C25.1558 5.34332 25.5964 4.90122 26.1369 4.90122H32.1994C32.5299 4.90122 32.7667 5.02608 32.9229 5.20543C33.0818 5.38796 33.165 5.63635 33.165 5.8904C33.165 6.14444 33.0818 6.39283 32.9229 6.57536C32.7667 6.75471 32.5299 6.87957 32.1994 6.87957H26.1369ZM7.30081 27.32C6.97039 27.32 6.73366 27.1952 6.57757 27.0158C6.41872 26.8334 6.33559 26.585 6.33559 26.331C6.33559 26.0771 6.41872 25.8287 6.57757 25.6462C6.73366 25.4669 6.97039 25.3421 7.30081 25.3421H17.811C18.1416 25.3421 18.3784 25.4669 18.5345 25.6463C18.6934 25.8287 18.7766 26.0771 18.7766 26.331C18.7766 26.585 18.6934 26.8333 18.5345 27.0158C18.3784 27.1951 18.1416 27.32 17.811 27.32H7.30081Z" fill="#3040C4"/>
</svg>
