<svg width="344" height="56" viewBox="0 0 344 56" fill="none" xmlns="http://www.w3.org/2000/svg">
<g clip-path="url(#clip0)">
<rect width="344" height="56" fill="white"/>
<mask id="path-2-inside-1" fill="white">
<path d="M23.958 23.3009C25.3519 21.907 26.7458 20.5131 28.1445 19.1144C28.5344 18.7245 28.9341 18.3443 29.3678 18.0032C29.1729 18.1542 28.9731 18.3102 28.7781 18.4613C29.4361 17.9593 30.1476 17.5401 30.908 17.2185C30.674 17.316 30.4401 17.4134 30.211 17.5109C31.0201 17.1697 31.8681 16.9407 32.7356 16.8188C32.4773 16.8529 32.219 16.8871 31.9558 16.9212C32.8428 16.8042 33.7347 16.8042 34.6218 16.9212C34.3635 16.8871 34.1051 16.8529 33.842 16.8188C34.7095 16.9407 35.5575 17.1697 36.3666 17.5109C36.1326 17.4134 35.8987 17.316 35.6696 17.2185C36.4299 17.545 37.1464 17.9593 37.7995 18.4613C37.6045 18.3102 37.4047 18.1542 37.2097 18.0032C37.8677 18.5149 38.4623 19.1046 38.974 19.7626C38.8229 19.5676 38.667 19.3678 38.5159 19.1729C39.0325 19.8454 39.4614 20.5765 39.7928 21.3563C39.6953 21.1224 39.5979 20.8884 39.5004 20.6594C39.8416 21.4733 40.0706 22.3213 40.1876 23.1937C40.1535 22.9354 40.1194 22.6771 40.0853 22.4139C40.1973 23.2814 40.1973 24.1587 40.0853 25.0262C40.1194 24.7679 40.1535 24.5096 40.1876 24.2464C40.0658 25.1188 39.8367 25.9718 39.4955 26.7808C39.593 26.5469 39.6905 26.3129 39.788 26.0839C39.4517 26.8637 39.0228 27.5947 38.5062 28.2673C38.6572 28.0723 38.8132 27.8725 38.9643 27.6776C38.3551 28.4525 37.624 29.1251 36.9271 29.822C36.0644 30.6847 35.1969 31.5522 34.3342 32.4149C34.1246 32.6244 33.9102 32.8389 33.7006 33.0485C33.1694 33.5797 32.8428 34.3644 32.8428 35.1149C32.8428 35.8314 33.1596 36.6892 33.7006 37.1814C34.2562 37.6932 34.9873 38.0733 35.7671 38.0392C36.542 38.0051 37.2731 37.7419 37.8336 37.1814C39.2031 35.8119 40.5726 34.4424 41.9422 33.0728C43.1021 31.9129 44.1451 30.6213 44.8031 29.1105C45.1004 28.4281 45.3928 27.7409 45.5829 27.0147C45.7729 26.2886 45.8753 25.538 45.9533 24.7972C46.0897 23.5397 45.963 22.2628 45.7242 21.0249C45.4854 19.7918 45.0029 18.5783 44.3985 17.4817C44.033 16.8188 43.5749 16.2194 43.107 15.6248C42.7804 15.2105 42.4247 14.8206 42.0396 14.4599C41.2013 13.6801 40.2558 12.9734 39.2323 12.4519C38.2235 11.9353 37.1366 11.5113 36.0205 11.2871C33.7932 10.8387 31.4392 10.8875 29.2801 11.6331C27.3599 12.296 25.6443 13.339 24.2017 14.7767C22.7834 16.195 21.3651 17.6133 19.9469 19.0315C19.903 19.0754 19.8591 19.1192 19.8153 19.1631C19.284 19.6944 18.9575 20.479 18.9575 21.2296C18.9575 21.946 19.2743 22.8038 19.8153 23.2961C20.3709 23.8078 21.1019 24.188 21.8817 24.1538C22.6664 24.1197 23.3975 23.8565 23.958 23.3009Z"/>
<path d="M24.0603 42.6888C22.6664 44.0827 21.2725 45.4766 19.8737 46.8753C19.4838 47.2652 19.0842 47.6454 18.6504 47.9865C18.8453 47.8355 19.0452 47.6795 19.2401 47.5284C18.5822 48.0304 17.8706 48.4496 17.1103 48.7712C17.3442 48.6738 17.5782 48.5763 17.8072 48.4788C16.9982 48.82 16.155 49.049 15.2826 49.1709C15.5409 49.1368 15.7992 49.1026 16.0624 49.0685C15.1754 49.1855 14.2835 49.1855 13.3965 49.0685C13.6548 49.1026 13.9131 49.1368 14.1763 49.1709C13.3088 49.049 12.4607 48.82 11.6517 48.4788C11.8856 48.5763 12.1196 48.6738 12.3486 48.7712C11.5883 48.4447 10.8767 48.0304 10.2188 47.5284C10.4137 47.6795 10.6136 47.8355 10.8085 47.9865C10.1359 47.4651 9.53159 46.8607 9.0101 46.1881C9.16118 46.3831 9.31714 46.5829 9.46823 46.7779C8.96623 46.1199 8.55196 45.4083 8.22542 44.648C8.32289 44.882 8.42037 45.1159 8.51785 45.345C8.17668 44.5359 7.94761 43.6928 7.82577 42.8204C7.85989 43.0787 7.894 43.337 7.92812 43.6002C7.81115 42.7131 7.81115 41.8212 7.92812 40.9342C7.894 41.1925 7.85989 41.4508 7.82577 41.714C7.94761 40.8465 8.17668 39.9985 8.51785 39.1894C8.42037 39.4233 8.32289 39.6573 8.22542 39.8864C8.55196 39.1261 8.96623 38.4145 9.46823 37.7565C9.31714 37.9515 9.16118 38.1513 9.0101 38.3462C9.60469 37.5762 10.3309 36.9085 11.0132 36.2262C11.8905 35.3489 12.7678 34.4716 13.645 33.5943C13.8644 33.375 14.0837 33.1557 14.303 32.9364C14.8342 32.4051 15.1608 31.6205 15.1608 30.8699C15.1608 30.1535 14.844 29.2957 14.303 28.8034C13.7474 28.2917 13.0163 27.9115 12.2365 27.9456C11.4616 27.9798 10.7305 28.2429 10.1701 28.8034C8.76641 30.2071 7.36276 31.6107 5.95912 33.0144C5.64233 33.3311 5.3304 33.6479 5.04773 33.994C4.59934 34.5447 4.15583 35.1101 3.7903 35.7193C3.42476 36.3285 3.15183 36.9767 2.87403 37.6347C2.42077 38.7264 2.21607 39.8327 2.06986 41.0024C1.92364 42.1868 2.02599 43.3321 2.20145 44.5116C2.54749 46.8412 3.69769 48.9954 5.22318 50.7597C6.00298 51.6614 6.96311 52.4363 7.96711 53.0748C8.94674 53.6986 10.0531 54.1762 11.1692 54.4979C11.6224 54.6295 12.0806 54.727 12.5436 54.7952C13.2454 54.8975 13.9423 54.995 14.6539 54.9999C15.7992 55.0048 16.9738 54.8488 18.0802 54.5515C20.2149 53.9764 22.1887 52.8116 23.7484 51.2568C25.1861 49.8288 26.6141 48.3911 28.047 46.9582C28.0909 46.9143 28.1396 46.8656 28.1835 46.8217C28.7147 46.2905 29.0413 45.5058 29.0413 44.7552C29.0413 44.0388 28.7245 43.181 28.1835 42.6888C27.6279 42.177 26.8968 41.7969 26.117 41.831C25.3567 41.8651 24.6208 42.1283 24.0603 42.6888Z"/>
<path d="M17.0859 44.0534C17.6854 43.4539 18.28 42.8593 18.8795 42.2599C20.3124 40.827 21.7453 39.3941 23.1782 37.9612C24.9083 36.231 26.6336 34.5057 28.3638 32.7755C29.8601 31.2793 31.3612 29.7782 32.8574 28.2819C33.5836 27.5557 34.3196 26.8393 35.036 26.1033C35.0458 26.0936 35.0555 26.0838 35.0653 26.0741C35.5965 25.5429 35.923 24.7582 35.923 24.0076C35.923 23.2912 35.6062 22.4334 35.0653 21.9411C34.5096 21.4294 33.7786 21.0492 32.9988 21.0834C32.2239 21.1175 31.4928 21.3807 30.9323 21.9411C30.3328 22.5406 29.7382 23.1352 29.1388 23.7347C27.7059 25.1676 26.273 26.6005 24.8401 28.0334C23.1099 29.7635 21.3846 31.4888 19.6544 33.219C18.1582 34.7153 16.6571 36.2164 15.1608 37.7126C14.4346 38.4388 13.6987 39.1553 12.9822 39.8912C12.9725 39.901 12.9627 39.9107 12.953 39.9205C12.4218 40.4517 12.0952 41.2364 12.0952 41.9869C12.0952 42.7034 12.412 43.5612 12.953 44.0534C13.5086 44.5652 14.2397 44.9453 15.0195 44.9112C15.7944 44.8722 16.5303 44.6139 17.0859 44.0534Z"/>
</mask>
<path d="M23.958 23.3009C25.3519 21.907 26.7458 20.5131 28.1445 19.1144C28.5344 18.7245 28.9341 18.3443 29.3678 18.0032C29.1729 18.1542 28.9731 18.3102 28.7781 18.4613C29.4361 17.9593 30.1476 17.5401 30.908 17.2185C30.674 17.316 30.4401 17.4134 30.211 17.5109C31.0201 17.1697 31.8681 16.9407 32.7356 16.8188C32.4773 16.8529 32.219 16.8871 31.9558 16.9212C32.8428 16.8042 33.7347 16.8042 34.6218 16.9212C34.3635 16.8871 34.1051 16.8529 33.842 16.8188C34.7095 16.9407 35.5575 17.1697 36.3666 17.5109C36.1326 17.4134 35.8987 17.316 35.6696 17.2185C36.4299 17.545 37.1464 17.9593 37.7995 18.4613C37.6045 18.3102 37.4047 18.1542 37.2097 18.0032C37.8677 18.5149 38.4623 19.1046 38.974 19.7626C38.8229 19.5676 38.667 19.3678 38.5159 19.1729C39.0325 19.8454 39.4614 20.5765 39.7928 21.3563C39.6953 21.1224 39.5979 20.8884 39.5004 20.6594C39.8416 21.4733 40.0706 22.3213 40.1876 23.1937C40.1535 22.9354 40.1194 22.6771 40.0853 22.4139C40.1973 23.2814 40.1973 24.1587 40.0853 25.0262C40.1194 24.7679 40.1535 24.5096 40.1876 24.2464C40.0658 25.1188 39.8367 25.9718 39.4955 26.7808C39.593 26.5469 39.6905 26.3129 39.788 26.0839C39.4517 26.8637 39.0228 27.5947 38.5062 28.2673C38.6572 28.0723 38.8132 27.8725 38.9643 27.6776C38.3551 28.4525 37.624 29.1251 36.9271 29.822C36.0644 30.6847 35.1969 31.5522 34.3342 32.4149C34.1246 32.6244 33.9102 32.8389 33.7006 33.0485C33.1694 33.5797 32.8428 34.3644 32.8428 35.1149C32.8428 35.8314 33.1596 36.6892 33.7006 37.1814C34.2562 37.6932 34.9873 38.0733 35.7671 38.0392C36.542 38.0051 37.2731 37.7419 37.8336 37.1814C39.2031 35.8119 40.5726 34.4424 41.9422 33.0728C43.1021 31.9129 44.1451 30.6213 44.8031 29.1105C45.1004 28.4281 45.3928 27.7409 45.5829 27.0147C45.7729 26.2886 45.8753 25.538 45.9533 24.7972C46.0897 23.5397 45.963 22.2628 45.7242 21.0249C45.4854 19.7918 45.0029 18.5783 44.3985 17.4817C44.033 16.8188 43.5749 16.2194 43.107 15.6248C42.7804 15.2105 42.4247 14.8206 42.0396 14.4599C41.2013 13.6801 40.2558 12.9734 39.2323 12.4519C38.2235 11.9353 37.1366 11.5113 36.0205 11.2871C33.7932 10.8387 31.4392 10.8875 29.2801 11.6331C27.3599 12.296 25.6443 13.339 24.2017 14.7767C22.7834 16.195 21.3651 17.6133 19.9469 19.0315C19.903 19.0754 19.8591 19.1192 19.8153 19.1631C19.284 19.6944 18.9575 20.479 18.9575 21.2296C18.9575 21.946 19.2743 22.8038 19.8153 23.2961C20.3709 23.8078 21.1019 24.188 21.8817 24.1538C22.6664 24.1197 23.3975 23.8565 23.958 23.3009Z" fill="#3C5AC4"/>
<path d="M24.0603 42.6888C22.6664 44.0827 21.2725 45.4766 19.8737 46.8753C19.4838 47.2652 19.0842 47.6454 18.6504 47.9865C18.8453 47.8355 19.0452 47.6795 19.2401 47.5284C18.5822 48.0304 17.8706 48.4496 17.1103 48.7712C17.3442 48.6738 17.5782 48.5763 17.8072 48.4788C16.9982 48.82 16.155 49.049 15.2826 49.1709C15.5409 49.1368 15.7992 49.1026 16.0624 49.0685C15.1754 49.1855 14.2835 49.1855 13.3965 49.0685C13.6548 49.1026 13.9131 49.1368 14.1763 49.1709C13.3088 49.049 12.4607 48.82 11.6517 48.4788C11.8856 48.5763 12.1196 48.6738 12.3486 48.7712C11.5883 48.4447 10.8767 48.0304 10.2188 47.5284C10.4137 47.6795 10.6136 47.8355 10.8085 47.9865C10.1359 47.4651 9.53159 46.8607 9.0101 46.1881C9.16118 46.3831 9.31714 46.5829 9.46823 46.7779C8.96623 46.1199 8.55196 45.4083 8.22542 44.648C8.32289 44.882 8.42037 45.1159 8.51785 45.345C8.17668 44.5359 7.94761 43.6928 7.82577 42.8204C7.85989 43.0787 7.894 43.337 7.92812 43.6002C7.81115 42.7131 7.81115 41.8212 7.92812 40.9342C7.894 41.1925 7.85989 41.4508 7.82577 41.714C7.94761 40.8465 8.17668 39.9985 8.51785 39.1894C8.42037 39.4233 8.32289 39.6573 8.22542 39.8864C8.55196 39.1261 8.96623 38.4145 9.46823 37.7565C9.31714 37.9515 9.16118 38.1513 9.0101 38.3462C9.60469 37.5762 10.3309 36.9085 11.0132 36.2262C11.8905 35.3489 12.7678 34.4716 13.645 33.5943C13.8644 33.375 14.0837 33.1557 14.303 32.9364C14.8342 32.4051 15.1608 31.6205 15.1608 30.8699C15.1608 30.1535 14.844 29.2957 14.303 28.8034C13.7474 28.2917 13.0163 27.9115 12.2365 27.9456C11.4616 27.9798 10.7305 28.2429 10.1701 28.8034C8.76641 30.2071 7.36276 31.6107 5.95912 33.0144C5.64233 33.3311 5.3304 33.6479 5.04773 33.994C4.59934 34.5447 4.15583 35.1101 3.7903 35.7193C3.42476 36.3285 3.15183 36.9767 2.87403 37.6347C2.42077 38.7264 2.21607 39.8327 2.06986 41.0024C1.92364 42.1868 2.02599 43.3321 2.20145 44.5116C2.54749 46.8412 3.69769 48.9954 5.22318 50.7597C6.00298 51.6614 6.96311 52.4363 7.96711 53.0748C8.94674 53.6986 10.0531 54.1762 11.1692 54.4979C11.6224 54.6295 12.0806 54.727 12.5436 54.7952C13.2454 54.8975 13.9423 54.995 14.6539 54.9999C15.7992 55.0048 16.9738 54.8488 18.0802 54.5515C20.2149 53.9764 22.1887 52.8116 23.7484 51.2568C25.1861 49.8288 26.6141 48.3911 28.047 46.9582C28.0909 46.9143 28.1396 46.8656 28.1835 46.8217C28.7147 46.2905 29.0413 45.5058 29.0413 44.7552C29.0413 44.0388 28.7245 43.181 28.1835 42.6888C27.6279 42.177 26.8968 41.7969 26.117 41.831C25.3567 41.8651 24.6208 42.1283 24.0603 42.6888Z" fill="#3C5AC4"/>
<path d="M17.0859 44.0534C17.6854 43.4539 18.28 42.8593 18.8795 42.2599C20.3124 40.827 21.7453 39.3941 23.1782 37.9612C24.9083 36.231 26.6336 34.5057 28.3638 32.7755C29.8601 31.2793 31.3612 29.7782 32.8574 28.2819C33.5836 27.5557 34.3196 26.8393 35.036 26.1033C35.0458 26.0936 35.0555 26.0838 35.0653 26.0741C35.5965 25.5429 35.923 24.7582 35.923 24.0076C35.923 23.2912 35.6062 22.4334 35.0653 21.9411C34.5096 21.4294 33.7786 21.0492 32.9988 21.0834C32.2239 21.1175 31.4928 21.3807 30.9323 21.9411C30.3328 22.5406 29.7382 23.1352 29.1388 23.7347C27.7059 25.1676 26.273 26.6005 24.8401 28.0334C23.1099 29.7635 21.3846 31.4888 19.6544 33.219C18.1582 34.7153 16.6571 36.2164 15.1608 37.7126C14.4346 38.4388 13.6987 39.1553 12.9822 39.8912C12.9725 39.901 12.9627 39.9107 12.953 39.9205C12.4218 40.4517 12.0952 41.2364 12.0952 41.9869C12.0952 42.7034 12.412 43.5612 12.953 44.0534C13.5086 44.5652 14.2397 44.9453 15.0195 44.9112C15.7944 44.8722 16.5303 44.6139 17.0859 44.0534Z" fill="#3C5AC4"/>
<path d="M23.958 23.3009C25.3519 21.907 26.7458 20.5131 28.1445 19.1144C28.5344 18.7245 28.9341 18.3443 29.3678 18.0032C29.1729 18.1542 28.9731 18.3102 28.7781 18.4613C29.4361 17.9593 30.1476 17.5401 30.908 17.2185C30.674 17.316 30.4401 17.4134 30.211 17.5109C31.0201 17.1697 31.8681 16.9407 32.7356 16.8188C32.4773 16.8529 32.219 16.8871 31.9558 16.9212C32.8428 16.8042 33.7347 16.8042 34.6218 16.9212C34.3635 16.8871 34.1051 16.8529 33.842 16.8188C34.7095 16.9407 35.5575 17.1697 36.3666 17.5109C36.1326 17.4134 35.8987 17.316 35.6696 17.2185C36.4299 17.545 37.1464 17.9593 37.7995 18.4613C37.6045 18.3102 37.4047 18.1542 37.2097 18.0032C37.8677 18.5149 38.4623 19.1046 38.974 19.7626C38.8229 19.5676 38.667 19.3678 38.5159 19.1729C39.0325 19.8454 39.4614 20.5765 39.7928 21.3563C39.6953 21.1224 39.5979 20.8884 39.5004 20.6594C39.8416 21.4733 40.0706 22.3213 40.1876 23.1937C40.1535 22.9354 40.1194 22.6771 40.0853 22.4139C40.1973 23.2814 40.1973 24.1587 40.0853 25.0262C40.1194 24.7679 40.1535 24.5096 40.1876 24.2464C40.0658 25.1188 39.8367 25.9718 39.4955 26.7808C39.593 26.5469 39.6905 26.3129 39.788 26.0839C39.4517 26.8637 39.0228 27.5947 38.5062 28.2673C38.6572 28.0723 38.8132 27.8725 38.9643 27.6776C38.3551 28.4525 37.624 29.1251 36.9271 29.822C36.0644 30.6847 35.1969 31.5522 34.3342 32.4149C34.1246 32.6244 33.9102 32.8389 33.7006 33.0485C33.1694 33.5797 32.8428 34.3644 32.8428 35.1149C32.8428 35.8314 33.1596 36.6892 33.7006 37.1814C34.2562 37.6932 34.9873 38.0733 35.7671 38.0392C36.542 38.0051 37.2731 37.7419 37.8336 37.1814C39.2031 35.8119 40.5726 34.4424 41.9422 33.0728C43.1021 31.9129 44.1451 30.6213 44.8031 29.1105C45.1004 28.4281 45.3928 27.7409 45.5829 27.0147C45.7729 26.2886 45.8753 25.538 45.9533 24.7972C46.0897 23.5397 45.963 22.2628 45.7242 21.0249C45.4854 19.7918 45.0029 18.5783 44.3985 17.4817C44.033 16.8188 43.5749 16.2194 43.107 15.6248C42.7804 15.2105 42.4247 14.8206 42.0396 14.4599C41.2013 13.6801 40.2558 12.9734 39.2323 12.4519C38.2235 11.9353 37.1366 11.5113 36.0205 11.2871C33.7932 10.8387 31.4392 10.8875 29.2801 11.6331C27.3599 12.296 25.6443 13.339 24.2017 14.7767C22.7834 16.195 21.3651 17.6133 19.9469 19.0315C19.903 19.0754 19.8591 19.1192 19.8153 19.1631C19.284 19.6944 18.9575 20.479 18.9575 21.2296C18.9575 21.946 19.2743 22.8038 19.8153 23.2961C20.3709 23.8078 21.1019 24.188 21.8817 24.1538C22.6664 24.1197 23.3975 23.8565 23.958 23.3009Z" stroke="white" mask="url(#path-2-inside-1)"/>
<path d="M24.0603 42.6888C22.6664 44.0827 21.2725 45.4766 19.8737 46.8753C19.4838 47.2652 19.0842 47.6454 18.6504 47.9865C18.8453 47.8355 19.0452 47.6795 19.2401 47.5284C18.5822 48.0304 17.8706 48.4496 17.1103 48.7712C17.3442 48.6738 17.5782 48.5763 17.8072 48.4788C16.9982 48.82 16.155 49.049 15.2826 49.1709C15.5409 49.1368 15.7992 49.1026 16.0624 49.0685C15.1754 49.1855 14.2835 49.1855 13.3965 49.0685C13.6548 49.1026 13.9131 49.1368 14.1763 49.1709C13.3088 49.049 12.4607 48.82 11.6517 48.4788C11.8856 48.5763 12.1196 48.6738 12.3486 48.7712C11.5883 48.4447 10.8767 48.0304 10.2188 47.5284C10.4137 47.6795 10.6136 47.8355 10.8085 47.9865C10.1359 47.4651 9.53159 46.8607 9.0101 46.1881C9.16118 46.3831 9.31714 46.5829 9.46823 46.7779C8.96623 46.1199 8.55196 45.4083 8.22542 44.648C8.32289 44.882 8.42037 45.1159 8.51785 45.345C8.17668 44.5359 7.94761 43.6928 7.82577 42.8204C7.85989 43.0787 7.894 43.337 7.92812 43.6002C7.81115 42.7131 7.81115 41.8212 7.92812 40.9342C7.894 41.1925 7.85989 41.4508 7.82577 41.714C7.94761 40.8465 8.17668 39.9985 8.51785 39.1894C8.42037 39.4233 8.32289 39.6573 8.22542 39.8864C8.55196 39.1261 8.96623 38.4145 9.46823 37.7565C9.31714 37.9515 9.16118 38.1513 9.0101 38.3462C9.60469 37.5762 10.3309 36.9085 11.0132 36.2262C11.8905 35.3489 12.7678 34.4716 13.645 33.5943C13.8644 33.375 14.0837 33.1557 14.303 32.9364C14.8342 32.4051 15.1608 31.6205 15.1608 30.8699C15.1608 30.1535 14.844 29.2957 14.303 28.8034C13.7474 28.2917 13.0163 27.9115 12.2365 27.9456C11.4616 27.9798 10.7305 28.2429 10.1701 28.8034C8.76641 30.2071 7.36276 31.6107 5.95912 33.0144C5.64233 33.3311 5.3304 33.6479 5.04773 33.994C4.59934 34.5447 4.15583 35.1101 3.7903 35.7193C3.42476 36.3285 3.15183 36.9767 2.87403 37.6347C2.42077 38.7264 2.21607 39.8327 2.06986 41.0024C1.92364 42.1868 2.02599 43.3321 2.20145 44.5116C2.54749 46.8412 3.69769 48.9954 5.22318 50.7597C6.00298 51.6614 6.96311 52.4363 7.96711 53.0748C8.94674 53.6986 10.0531 54.1762 11.1692 54.4979C11.6224 54.6295 12.0806 54.727 12.5436 54.7952C13.2454 54.8975 13.9423 54.995 14.6539 54.9999C15.7992 55.0048 16.9738 54.8488 18.0802 54.5515C20.2149 53.9764 22.1887 52.8116 23.7484 51.2568C25.1861 49.8288 26.6141 48.3911 28.047 46.9582C28.0909 46.9143 28.1396 46.8656 28.1835 46.8217C28.7147 46.2905 29.0413 45.5058 29.0413 44.7552C29.0413 44.0388 28.7245 43.181 28.1835 42.6888C27.6279 42.177 26.8968 41.7969 26.117 41.831C25.3567 41.8651 24.6208 42.1283 24.0603 42.6888Z" stroke="white" mask="url(#path-2-inside-1)"/>
<path d="M17.0859 44.0534C17.6854 43.4539 18.28 42.8593 18.8795 42.2599C20.3124 40.827 21.7453 39.3941 23.1782 37.9612C24.9083 36.231 26.6336 34.5057 28.3638 32.7755C29.8601 31.2793 31.3612 29.7782 32.8574 28.2819C33.5836 27.5557 34.3196 26.8393 35.036 26.1033C35.0458 26.0936 35.0555 26.0838 35.0653 26.0741C35.5965 25.5429 35.923 24.7582 35.923 24.0076C35.923 23.2912 35.6062 22.4334 35.0653 21.9411C34.5096 21.4294 33.7786 21.0492 32.9988 21.0834C32.2239 21.1175 31.4928 21.3807 30.9323 21.9411C30.3328 22.5406 29.7382 23.1352 29.1388 23.7347C27.7059 25.1676 26.273 26.6005 24.8401 28.0334C23.1099 29.7635 21.3846 31.4888 19.6544 33.219C18.1582 34.7153 16.6571 36.2164 15.1608 37.7126C14.4346 38.4388 13.6987 39.1553 12.9822 39.8912C12.9725 39.901 12.9627 39.9107 12.953 39.9205C12.4218 40.4517 12.0952 41.2364 12.0952 41.9869C12.0952 42.7034 12.412 43.5612 12.953 44.0534C13.5086 44.5652 14.2397 44.9453 15.0195 44.9112C15.7944 44.8722 16.5303 44.6139 17.0859 44.0534Z" stroke="white" mask="url(#path-2-inside-1)"/>
<path d="M70.0332 50.5723L70.2383 50.6016C71.4492 50.6602 72.3477 50.6895 72.9336 50.6895C76.4492 50.6895 79.0078 50.0547 80.6094 48.7852C82.2109 47.4961 83.0117 45.4355 83.0117 42.6035C83.0117 40.0449 82.2598 38.1406 80.7559 36.8906C79.252 35.6211 76.9961 34.9863 73.9883 34.9863C73.1094 34.9863 72.377 34.9961 71.791 35.0156C71.2051 35.0352 70.6191 35.0645 70.0332 35.1035V50.5723ZM70.0625 31.6172C70.2188 31.6367 70.4141 31.6562 70.6484 31.6758C70.8828 31.6758 71.2246 31.6758 71.6738 31.6758C74.7988 31.6758 77.0938 31.0508 78.5586 29.8008C80.043 28.5312 80.7852 26.5586 80.7852 23.8828C80.7852 21.5391 80.1016 19.8008 78.7344 18.668C77.3672 17.5352 75.2676 16.9688 72.4355 16.9688C71.9668 16.9688 71.2246 17.0078 70.209 17.0859H70.0332L70.0625 31.6172ZM57.7285 13.7461H75.7461C80.1602 13.7461 83.4805 14.5371 85.707 16.1191C87.9336 17.6816 89.0469 20.0254 89.0469 23.1504C89.0469 25.5137 88.3242 27.4961 86.8789 29.0977C85.4336 30.6797 83.3047 31.8418 80.4922 32.584C83.9297 32.6426 86.6055 33.5215 88.5195 35.2207C90.4336 36.9199 91.3906 39.2637 91.3906 42.252C91.3906 46.041 90.0918 48.9512 87.4941 50.9824C84.8965 52.9941 81.1562 54 76.2734 54H57.7285V51.0703L61.2734 50.748L62.2402 49.8105V17.8184L61.2734 16.9688L57.7285 16.6758V13.7461ZM95.4043 54V51.3047L98.5977 51.0703L99.4473 50.1621V29.4492H95.1113V27.0469L103.93 24.2344H106.83L106.566 30.3574C107.602 29.2637 108.705 28.209 109.877 27.1934C111.049 26.1582 112.279 25.1816 113.568 24.2637C113.9 24.2051 114.164 24.166 114.359 24.1465C114.574 24.127 114.76 24.1172 114.916 24.1172C115.561 24.1172 116.205 24.2051 116.85 24.3809C117.514 24.5371 118.188 24.791 118.871 25.1426L118.109 33.4336H114.975C114.525 32.6914 113.979 32.1445 113.334 31.793C112.709 31.4414 111.957 31.2656 111.078 31.2656C110.57 31.2656 109.955 31.4121 109.232 31.7051C108.529 31.9785 107.729 32.3887 106.83 32.9355V50.1621L107.709 51.0703L111.986 51.3047V54H95.4043ZM139.496 48.1113V38.3262C135.551 39.2051 132.855 40.1621 131.41 41.1973C129.965 42.2324 129.242 43.6387 129.242 45.416C129.242 46.8027 129.643 47.9062 130.443 48.7266C131.244 49.5273 132.328 49.9277 133.695 49.9277C134.457 49.9277 135.316 49.7812 136.273 49.4883C137.25 49.1758 138.324 48.7168 139.496 48.1113ZM139.496 50.5723C137.465 51.959 135.619 52.9648 133.959 53.5898C132.299 54.2148 130.707 54.5273 129.184 54.5273C126.879 54.5273 124.994 53.8047 123.529 52.3594C122.064 50.8945 121.332 49.0195 121.332 46.7344C121.332 43.9219 122.406 41.7539 124.555 40.2305C126.703 38.707 131.713 37.0566 139.584 35.2793V33.4922C139.584 31.3242 139.125 29.7422 138.207 28.7461C137.289 27.75 135.844 27.252 133.871 27.252C133.441 27.252 132.992 27.2812 132.523 27.3398C132.055 27.3984 131.547 27.4863 131 27.6035V33.2285H125.463C124.506 33.2285 123.803 33.0527 123.354 32.7012C122.924 32.3496 122.709 31.793 122.709 31.0312C122.709 29.1562 123.969 27.5254 126.488 26.1387C129.008 24.752 132.104 24.0586 135.775 24.0586C139.896 24.0586 142.797 24.8496 144.477 26.4316C146.156 28.0137 146.996 30.7676 146.996 34.6934V50.2207L147.787 51.0703L150.98 51.3633V54H140.287L139.496 50.5723ZM153.412 54V51.3047L156.488 51.0703L157.338 50.1621V29.4492H153.236V27.0469L161.879 24.2344H164.779V27.7793C167.064 26.5098 169.037 25.582 170.697 24.9961C172.357 24.4102 173.803 24.1172 175.033 24.1172C177.768 24.1172 179.809 24.9375 181.156 26.5781C182.504 28.2188 183.178 30.7188 183.178 34.0781V50.1621L183.969 51.0703L187.133 51.3047V54H172.455V51.3047L175.033 51.0703L175.854 50.1621V35.8066C175.854 33.5801 175.424 31.9492 174.564 30.9141C173.705 29.8594 172.338 29.332 170.463 29.332C169.74 29.332 168.9 29.4199 167.943 29.5957C167.006 29.7715 165.951 30.0254 164.779 30.3574V50.1621L165.6 51.0703L168.236 51.3047V54H153.412ZM211.244 48.2871V28.248C210.346 27.9551 209.535 27.7402 208.812 27.6035C208.09 27.4473 207.416 27.3691 206.791 27.3691C204.174 27.3691 202.074 28.4043 200.492 30.4746C198.93 32.5449 198.148 35.3281 198.148 38.8242C198.148 42.1445 198.861 44.7422 200.287 46.6172C201.713 48.4922 203.686 49.4297 206.205 49.4297C206.869 49.4297 207.611 49.3418 208.432 49.166C209.271 48.9707 210.209 48.6777 211.244 48.2871ZM211.244 14.8887H206.85V12.4863L215.785 9.67383H218.568V50.1621L219.389 51.1289L222.465 51.3633V54H211.244V50.6309C209.408 51.9785 207.729 52.9648 206.205 53.5898C204.682 54.2148 203.197 54.5273 201.752 54.5273C198.354 54.5273 195.561 53.1895 193.373 50.5137C191.205 47.8184 190.121 44.3418 190.121 40.084C190.121 35.2988 191.547 31.4219 194.398 28.4531C197.27 25.4844 201 24 205.59 24C206.449 24 207.348 24.0488 208.285 24.1465C209.223 24.2441 210.209 24.3906 211.244 24.5859V14.8887ZM225.307 54V51.0703L228.969 50.748L229.994 49.8105V17.8184L229.145 16.9688L225.307 16.6758V13.7461H242.592V16.6758L238.93 16.9688L237.963 17.8184V50.5137H249.506L250.268 49.5469L251.176 42.252H255.629V54H225.307ZM266.645 24.2344H269.545V50.1621L270.424 51.0703L273.793 51.3047V54H258.061V51.3047L261.312 51.0703L262.162 50.1621V29.4492H258.207V27.0469L266.645 24.2344ZM266 10.5527C267.309 10.5527 268.383 10.9727 269.223 11.8125C270.062 12.6328 270.482 13.6777 270.482 14.9473C270.482 16.2754 270.062 17.3691 269.223 18.2285C268.402 19.0684 267.348 19.4883 266.059 19.4883C264.809 19.4883 263.764 19.0684 262.924 18.2285C262.084 17.3887 261.664 16.334 261.664 15.0645C261.664 13.7754 262.074 12.7012 262.895 11.8418C263.734 10.9824 264.77 10.5527 266 10.5527ZM276.459 54V51.3047L279.535 51.0703L280.385 50.1621V29.4492H276.283V27.0469L284.926 24.2344H287.826V27.7793C290.111 26.5098 292.084 25.582 293.744 24.9961C295.404 24.4102 296.85 24.1172 298.08 24.1172C300.814 24.1172 302.855 24.9375 304.203 26.5781C305.551 28.2188 306.225 30.7188 306.225 34.0781V50.1621L307.016 51.0703L310.18 51.3047V54H295.502V51.3047L298.08 51.0703L298.9 50.1621V35.8066C298.9 33.5801 298.471 31.9492 297.611 30.9141C296.752 29.8594 295.385 29.332 293.51 29.332C292.787 29.332 291.947 29.4199 290.99 29.5957C290.053 29.7715 288.998 30.0254 287.826 30.3574V50.1621L288.646 51.0703L291.283 51.3047V54H276.459ZM312.436 54V51.3633L315.57 51.0703L316.391 50.1621V14.8301H312.025V12.4863L321.254 9.67383H323.773V38.4727H325.092L333.676 28.4531L333.266 27.7793L330.629 27.4863V24.8496H342.875V27.4863L338.949 27.9551L332.123 35.5723L341.674 51.0703L345.189 51.3633V54H333.676V51.6562L326.732 40.4355H323.773V50.2793L324.564 51.1289L327.553 51.3633V54H312.436Z" fill="#3C5AC4"/>
</g>
<defs>
<clipPath id="clip0">
<rect width="344" height="56" fill="white"/>
</clipPath>
</defs>
</svg>
