<svg width="25" height="49" viewBox="0 0 25 49" fill="none" xmlns="http://www.w3.org/2000/svg">
<path d="M23.5392 1.47474L23.5392 48.0253C23.5392 48.4155 23.8417 48.75 24.1946 48.75C24.5476 48.75 24.8501 48.4713 24.8501 48.081L24.8501 1.47474C24.8501 1.08449 24.5476 0.75 24.1946 0.75C23.8417 0.75 23.5392 1.08449 23.5392 1.47474Z" fill="black"/>
<path d="M13.5056 48.081L13.5056 1.47474C13.5056 1.08449 13.2031 0.75 12.8502 0.75C12.4972 0.75 12.2451 1.08449 12.2451 1.47474L12.2451 48.0253C12.2451 48.4155 12.5476 48.75 12.9006 48.75C13.2535 48.75 13.5056 48.4713 13.5056 48.081Z" fill="black"/>
<path d="M2.16089 48.081L2.16089 1.47474C2.16089 1.08449 1.85837 0.75 1.50542 0.75C1.15248 0.75 0.849965 1.08449 0.849965 1.47474L0.849963 48.0253C0.849963 48.4155 1.15248 48.75 1.50542 48.75C1.90878 48.75 2.16089 48.4713 2.16089 48.081Z" fill="black"/>
</svg>
