<svg width="32" height="32" viewBox="0 0 32 32" fill="none" xmlns="http://www.w3.org/2000/svg">
<path fill-rule="evenodd" clip-rule="evenodd" d="M26.5477 6.56534V10.8444H30.8585C31.465 10.8444 31.9674 11.3364 32 11.9581V30.893C32 31.5052 31.5053 32 30.8946 32H11.9378C11.3271 32 10.8324 31.5052 10.8324 30.893V26.5778H6.55775C5.91838 26.5778 5.4162 26.1281 5.4162 25.5431V21.1556H1.14154C0.502176 21.1556 0 20.7059 0 20.1209V1.14311C0 0.530999 0.530832 0 1.14154 0H20.0983C20.6819 0 21.1315 0.50232 21.1315 1.14311V5.42222H25.5145C26.0981 5.42222 26.5477 5.92454 26.5477 6.56534ZM2.17477 2.17777V18.9778H18.9567V2.17777H2.17477ZM7.59097 21.1556V24.4H24.3729V7.6H21.1315V20.1209C21.1315 20.733 20.709 21.1556 20.0983 21.1556H7.59097ZM13.0072 29.8222H29.7891V13.0222H26.5477V25.5431C26.5477 26.1552 26.1252 26.5778 25.5145 26.5778H13.0072V29.8222Z" fill="#3040C4"/>
</svg>
