<svg width="28" height="32" viewBox="0 0 28 32" fill="none" xmlns="http://www.w3.org/2000/svg">
<path d="M27.4779 5.78614C27.7057 6.01841 27.8033 6.28387 27.8033 6.61569C27.8033 6.94751 27.6731 7.21297 27.4779 7.44524L22.1092 12.9203C21.6537 13.3848 20.9379 13.3848 20.5149 12.9203C20.0594 12.4557 20.0594 11.7257 20.5149 11.2944L25.1027 6.61569L22.4671 3.92794V6.61569C22.4671 7.24615 21.9465 7.77706 21.3283 7.77706H7.8578C4.79928 7.77706 2.29389 10.3321 2.29389 13.4512C2.29389 14.0817 1.77329 14.6126 1.15508 14.6126C0.536868 14.6126 0.0162688 14.0817 0.0162688 13.4512C0.0162688 9.03798 3.53032 5.45432 7.8578 5.45432H20.157V1.14064C20.157 0.676092 20.4498 0.244725 20.8728 0.0788141C21.2958 -0.0870964 21.7838 0.0124499 22.1092 0.344271L27.4779 5.78614ZM26.6645 17.3999C26.0463 17.3999 25.5257 17.9308 25.5257 18.5612C25.5257 21.6804 23.0203 24.2354 19.9617 24.2354H6.52376C5.90555 24.2354 5.38495 24.7663 5.38495 25.3968V28.0845L2.74942 25.3968L7.3372 20.7181C7.79273 20.2535 7.79273 19.5235 7.3372 19.0922C6.88168 18.6276 6.16585 18.6276 5.74287 19.0922L0.341644 24.5672C-0.113881 25.0318 -0.113881 25.7618 0.341644 26.1931L5.71033 31.6682C5.93809 31.9005 6.23093 32 6.52376 32C6.68645 32 6.8166 31.9668 6.94675 31.9005C7.36974 31.7345 7.66258 31.3032 7.66258 30.8386V26.525H19.9617C24.2892 26.525 27.8033 22.9413 27.8033 18.5281C27.8033 17.9308 27.3152 17.3999 26.6645 17.3999ZM15.2113 16.0062C15.2113 15.2762 14.6256 14.6789 13.9098 14.6789C13.1939 14.6789 12.6083 15.2762 12.6083 16.0062C12.6083 16.7362 13.1939 17.3335 13.9098 17.3335C14.6256 17.3335 15.2113 16.7362 15.2113 16.0062ZM19.2459 16.0062C19.2459 15.2762 18.6602 14.6789 17.9444 14.6789C17.2286 14.6789 16.6429 15.2762 16.6429 16.0062C16.6429 16.7362 17.2286 17.3335 17.9444 17.3335C18.6602 17.3335 19.2459 16.7362 19.2459 16.0062ZM11.1766 16.0062C11.1766 15.2762 10.5909 14.6789 9.87512 14.6789C9.1593 14.6789 8.57363 15.2762 8.57363 16.0062C8.57363 16.7362 9.1593 17.3335 9.87512 17.3335C10.5909 17.3335 11.1766 16.7362 11.1766 16.0062Z" fill="#3040C4"/>
</svg>
