<svg width="34" height="32" viewBox="0 0 34 32" fill="none" xmlns="http://www.w3.org/2000/svg">
<path d="M16.7929 0C14.7451 0 13.0611 1.67914 13.0611 3.72093C13.0611 5.37604 14.1635 6.80179 15.6733 7.27907V10.1395C13.2288 10.5102 11.1617 12.0726 10.099 14.2093L7.46349 13.3372C7.43117 11.3224 5.75955 9.67442 3.73175 9.67442C1.68402 9.67442 0 11.3535 0 13.3953C0 15.4371 1.68402 17.1163 3.73175 17.1163C5.01158 17.1163 6.14876 16.4672 6.8221 15.4767L9.411 16.3372C9.35184 16.7132 9.32937 17.0963 9.32937 17.4884C9.32937 19.4985 10.1438 21.3326 11.4518 22.6744L10.0174 24.7209C9.681 24.6204 9.32366 24.5581 8.95619 24.5581C6.90847 24.5581 5.22445 26.2373 5.22445 28.2791C5.22445 30.3209 6.90847 32 8.95619 32C11.0039 32 12.6879 30.3209 12.6879 28.2791C12.6879 27.4065 12.3837 26.6025 11.8716 25.9651L13.236 24.0349C14.2934 24.6091 15.5089 24.9302 16.7929 24.9302C18.0768 24.9302 19.2923 24.6091 20.3497 24.0349L21.7141 25.9651C21.202 26.6025 20.8978 27.4065 20.8978 28.2791C20.8978 30.3209 22.5818 32 24.6295 32C26.6773 32 28.3613 30.3209 28.3613 28.2791C28.3613 26.2373 26.6773 24.5581 24.6295 24.5581C24.2659 24.5581 23.9132 24.6224 23.58 24.7209L22.1339 22.6744C23.442 21.3326 24.2564 19.4985 24.2564 17.4884C24.2564 17.0963 24.2339 16.7132 24.1747 16.3372L26.7636 15.4767C27.437 16.4672 28.5741 17.1163 29.854 17.1163C31.9017 17.1163 33.5857 15.4371 33.5857 13.3953C33.5857 11.3535 31.9017 9.67442 29.854 9.67442C27.8262 9.67442 26.1546 11.3224 26.1222 13.3372L23.4867 14.2093C22.4241 12.0726 20.3569 10.5102 17.9124 10.1395V7.27907C19.4222 6.80179 20.5246 5.37604 20.5246 3.72093C20.5246 1.67914 18.8406 0 16.7929 0ZM16.7929 2.23256C17.6305 2.23256 18.2856 2.8857 18.2856 3.72093C18.2856 4.55616 17.6305 5.2093 16.7929 5.2093C15.9552 5.2093 15.3002 4.55616 15.3002 3.72093C15.3002 2.8857 15.9552 2.23256 16.7929 2.23256ZM3.73175 11.907C4.5694 11.907 5.22445 12.5601 5.22445 13.3953C5.22445 14.2306 4.5694 14.8837 3.73175 14.8837C2.89409 14.8837 2.23905 14.2306 2.23905 13.3953C2.23905 12.5601 2.89409 11.907 3.73175 11.907ZM29.854 11.907C30.6916 11.907 31.3467 12.5601 31.3467 13.3953C31.3467 14.2306 30.6916 14.8837 29.854 14.8837C29.0163 14.8837 28.3613 14.2306 28.3613 13.3953C28.3613 12.5601 29.0163 11.907 29.854 11.907ZM16.7929 12.2791C19.6915 12.2791 22.0173 14.5981 22.0173 17.4884C22.0173 20.3786 19.6915 22.6977 16.7929 22.6977C13.8942 22.6977 11.5684 20.3786 11.5684 17.4884C11.5684 14.5981 13.8942 12.2791 16.7929 12.2791ZM8.95619 26.7907C9.79385 26.7907 10.4489 27.4438 10.4489 28.2791C10.4489 29.1143 9.79385 29.7674 8.95619 29.7674C8.11854 29.7674 7.46349 29.1143 7.46349 28.2791C7.46349 27.4438 8.11854 26.7907 8.95619 26.7907ZM24.6295 26.7907C25.4672 26.7907 26.1222 27.4438 26.1222 28.2791C26.1222 29.1143 25.4672 29.7674 24.6295 29.7674C23.7919 29.7674 23.1368 29.1143 23.1368 28.2791C23.1368 27.4438 23.7919 26.7907 24.6295 26.7907Z" fill="#3040C4"/>
</svg>
